<?xml version="1.0" encoding="UTF-8"?>
<svg id="Layer_1" data-name="Layer 1" xmlns="http://www.w3.org/2000/svg" viewBox="0 0 1024 527.38">
  <defs>
    <style>
      .cls-1 {
        fill: #372aac;
      }
    </style>
  </defs>
  <path class="cls-1" d="M211.53,527.38c-28.98,0-56.75-2.42-83.31-7.24-26.57-4.82-50.71-11.34-72.44-19.56-21.73-8.21-40.33-17.14-55.78-26.8l56.51-107.94c17.39,10.63,35.37,19.68,53.97,27.16,18.59,7.5,37.55,13.17,56.87,17.03,19.31,3.87,38.87,5.79,58.68,5.79,17.86,0,33.2-1.93,46-5.79,12.79-3.86,22.69-9.17,29.7-15.94,6.99-6.76,10.5-14.72,10.5-23.91s-4.47-16.9-13.4-23.18c-8.94-6.27-20.65-11.59-35.14-15.94-14.49-4.35-30.55-8.7-48.18-13.04-17.63-4.35-35.26-9.89-52.88-16.66-17.64-6.76-33.81-15.21-48.54-25.36-14.73-10.14-26.44-22.82-35.13-38.03-8.7-15.21-13.04-34.41-13.04-57.59,0-36.22,9.89-67.85,29.7-94.9,19.8-27.04,47.92-48.05,84.4-63.02C216.48,7.5,259.82,0,310.05,0c35.74,0,69.3,3.75,100.7,11.23,31.39,7.49,58.43,18.24,81.14,32.24l-52.89,107.21c-19.32-13.04-40.93-22.82-64.83-29.34-23.91-6.52-48.42-9.78-73.53-9.78-19.81,0-36.47,2.17-49.98,6.52-13.52,4.34-23.91,10.26-31.15,17.75-7.24,7.5-10.87,15.82-10.87,25,0,9.66,4.46,17.63,13.4,23.91,8.93,6.28,20.76,11.59,35.5,15.94,14.72,4.34,30.79,8.82,48.18,13.4,17.39,4.59,34.89,10.03,52.52,16.3,17.62,6.28,33.8,14.25,48.54,23.91,14.72,9.67,26.68,21.98,35.86,36.95,9.17,14.97,13.76,33.57,13.76,55.78,0,36.22-10.14,67.86-30.43,94.9-20.28,27.05-48.66,48.06-85.12,63.02-36.47,14.96-79.57,22.46-129.31,22.46Z"/>
  <path d="M661.06,525.93l84.76-427.41h-168.07l16.66-79.69h429.59l-15.94,79.69h-168.07l-85.48,427.41h-93.45Z"/>
</svg>